<svg width="80" height="76" viewBox="0 0 80 76" fill="none" xmlns="http://www.w3.org/2000/svg">
<path d="M74.5 35.5C74.5 54.8367 59.0472 70.5 40 70.5C20.9528 70.5 5.5 54.8367 5.5 35.5C5.5 16.1633 20.9528 0.5 40 0.5C59.0472 0.5 74.5 16.1633 74.5 35.5Z" stroke="white" stroke-opacity="0.1"/>
<path d="M6 36C6 54.7777 21.2223 70 40 70C58.7777 70 74 54.7777 74 36" stroke="url(#paint0_linear_22_530)" stroke-linecap="round" stroke-linejoin="round"/>
<g filter="url(#filter0_f_22_530)">
<path d="M6 36C6 54.7777 21.2223 70 40 70C58.7777 70 74 54.7777 74 36" stroke="url(#paint1_linear_22_530)" stroke-width="2" stroke-linecap="round" stroke-linejoin="round"/>
</g>
<defs>
<filter id="filter0_f_22_530" x="0" y="30" width="80" height="46" filterUnits="userSpaceOnUse" color-interpolation-filters="sRGB">
<feFlood flood-opacity="0" result="BackgroundImageFix"/>
<feBlend mode="normal" in="SourceGraphic" in2="BackgroundImageFix" result="shape"/>
<feGaussianBlur stdDeviation="2.5" result="effect1_foregroundBlur_22_530"/>
</filter>
<linearGradient id="paint0_linear_22_530" x1="-1.88406" y1="40.4348" x2="-1.88406" y2="89.7102" gradientUnits="userSpaceOnUse">
<stop offset="0.11" stop-color="white" stop-opacity="0"/>
<stop offset="0.6" stop-color="white" stop-opacity="0.828947"/>
<stop offset="0.885" stop-color="white" stop-opacity="0"/>
</linearGradient>
<linearGradient id="paint1_linear_22_530" x1="-1.88406" y1="40.4348" x2="-1.88406" y2="89.7102" gradientUnits="userSpaceOnUse">
<stop offset="0.11" stop-color="white" stop-opacity="0"/>
<stop offset="0.6" stop-color="white" stop-opacity="0.828947"/>
<stop offset="0.885" stop-color="white" stop-opacity="0"/>
</linearGradient>
</defs>
</svg>
