<svg width="35" height="35" viewBox="0 0 35 35" fill="none" xmlns="http://www.w3.org/2000/svg">
<path d="M21.748 10.8269L15.0756 17.4993L21.748 24.1716L20.5324 25.3872L12.6431 17.4993L20.5324 9.61133L21.748 10.8269Z" fill="white"/>
<path d="M26.6854 30.3335C27.0705 30.0571 27.6085 30.1457 27.8849 30.5321C28.1613 30.9172 28.0727 31.4552 27.6863 31.7316C26.2305 32.7741 24.603 33.6019 22.8508 34.1641C21.1589 34.7075 19.3596 35 17.5 35C12.6671 35 8.2918 33.0411 5.12535 29.8746C1.95891 26.7082 0 22.3315 0 17.5C0 12.6671 1.95891 8.2918 5.12535 5.12535C8.2918 1.95891 12.6685 0 17.5 0C22.3329 0 26.7082 1.95891 29.8746 5.12535C33.0411 8.2918 35 12.6685 35 17.5C35 18.8954 34.8363 20.2559 34.5264 21.5587C34.2084 22.8964 33.7348 24.1791 33.1243 25.3853C32.911 25.8079 32.3957 25.9783 31.9717 25.765C31.5491 25.5516 31.3787 25.0364 31.592 24.6124C32.1381 23.5324 32.5648 22.3758 32.8533 21.1615C33.1323 19.9875 33.2799 18.7612 33.2799 17.4987C33.2799 13.1408 31.5129 9.19612 28.6577 6.33961C25.8025 3.48444 21.8566 1.7174 17.4987 1.7174C13.1408 1.7174 9.19612 3.48444 6.33961 6.33961C3.48444 9.19478 1.7174 13.1408 1.7174 17.4987C1.7174 21.8566 3.48444 25.8025 6.33961 28.6577C9.19478 31.5129 13.1408 33.2799 17.4987 33.2799C19.1879 33.2799 20.81 33.0169 22.3262 32.5312C23.896 32.0281 25.3651 31.2794 26.684 30.3335H26.6854Z" fill="#FEFEFE"/>
</svg>
