<svg width="197" height="44" viewBox="0 0 197 44" fill="none" xmlns="http://www.w3.org/2000/svg">
<g clip-path="url(#clip0_145_1192)">
<rect x="1" y="0.5" width="195" height="43" rx="21.5" fill="white" fill-opacity="0.05" stroke="url(#paint0_linear_145_1192)"/>
<path d="M40.877 25.2528V17.8807H42.5496V25.2528H40.877ZM38.0273 22.4031V20.7305H45.3994V22.4031H38.0273ZM50.85 29.6314V25.386H51.5797C51.8248 25.1907 52.0538 24.9155 52.2669 24.5604C52.4799 24.2053 52.661 23.7187 52.8102 23.1009C52.9593 22.483 53.0623 21.6839 53.1191 20.7038L53.4068 16.0909H60.3794V25.386H61.5939V29.6207H59.6976V27H52.7463V29.6314H50.85ZM53.8809 25.386H58.4831V17.7475H55.1859L55.0154 20.7038C54.9693 21.446 54.8947 22.1101 54.7917 22.696C54.6887 23.282 54.5591 23.7987 54.4029 24.2461C54.2466 24.69 54.0726 25.07 53.8809 25.386ZM66.6876 27.1598C65.8886 27.1598 65.1961 26.984 64.6102 26.6325C64.0242 26.2809 63.5697 25.7891 63.2465 25.157C62.9269 24.5249 62.7671 23.7862 62.7671 22.9411C62.7671 22.0959 62.9269 21.3555 63.2465 20.7198C63.5697 20.0842 64.0242 19.5906 64.6102 19.239C65.1961 18.8874 65.8886 18.7116 66.6876 18.7116C67.4866 18.7116 68.1791 18.8874 68.765 19.239C69.3509 19.5906 69.8037 20.0842 70.1233 20.7198C70.4465 21.3555 70.608 22.0959 70.608 22.9411C70.608 23.7862 70.4465 24.5249 70.1233 25.157C69.8037 25.7891 69.3509 26.2809 68.765 26.6325C68.1791 26.984 67.4866 27.1598 66.6876 27.1598ZM66.6982 25.6151C67.1315 25.6151 67.4937 25.4961 67.7849 25.2582C68.0761 25.0167 68.2927 24.6935 68.4347 24.2887C68.5803 23.8839 68.6531 23.4329 68.6531 22.9357C68.6531 22.435 68.5803 21.9822 68.4347 21.5774C68.2927 21.169 68.0761 20.8441 67.7849 20.6026C67.4937 20.3612 67.1315 20.2404 66.6982 20.2404C66.2544 20.2404 65.885 20.3612 65.5903 20.6026C65.2991 20.8441 65.0807 21.169 64.9351 21.5774C64.7931 21.9822 64.722 22.435 64.722 22.9357C64.722 23.4329 64.7931 23.8839 64.9351 24.2887C65.0807 24.6935 65.2991 25.0167 65.5903 25.2582C65.885 25.4961 66.2544 25.6151 66.6982 25.6151ZM78.8018 15.7926L79.473 17.0391C79.2351 17.245 78.9688 17.3942 78.674 17.4865C78.3793 17.5788 78.033 17.6392 77.6353 17.6676C77.2411 17.6925 76.7724 17.7102 76.229 17.7209C75.6183 17.7351 75.1193 17.8505 74.7322 18.0671C74.3452 18.2837 74.0487 18.6122 73.8427 19.0526C73.6367 19.4893 73.5018 20.0469 73.4379 20.7251H73.5284C73.7841 20.2244 74.1428 19.8427 74.6044 19.5799C75.0661 19.3171 75.6076 19.1857 76.229 19.1857C76.9073 19.1857 77.5057 19.3384 78.0241 19.6438C78.5462 19.9457 78.9528 20.3842 79.244 20.9595C79.5387 21.5348 79.6861 22.2308 79.6861 23.0476C79.6861 23.8892 79.5281 24.619 79.212 25.2369C78.896 25.8512 78.4467 26.3253 77.8643 26.6591C77.2855 26.9929 76.5984 27.1598 75.8029 27.1598C75.011 27.1598 74.3221 26.9876 73.7362 26.6431C73.1538 26.2951 72.7028 25.782 72.3832 25.1037C72.0671 24.4219 71.9091 23.582 71.9091 22.5842V21.8491C71.9091 19.9244 72.2678 18.4879 72.9851 17.5398C73.7024 16.5916 74.766 16.1087 76.1758 16.0909C76.5948 16.0838 76.9695 16.082 77.2997 16.0856C77.6335 16.0891 77.9247 16.0732 78.1733 16.0376C78.4219 16.0021 78.6314 15.9205 78.8018 15.7926ZM75.8136 25.6151C76.2077 25.6151 76.5487 25.5138 76.8363 25.3114C77.1239 25.1055 77.3441 24.8143 77.4968 24.4379C77.6531 24.0614 77.7312 23.6158 77.7312 23.1009C77.7312 22.593 77.6531 22.1616 77.4968 21.8065C77.3406 21.4478 77.1186 21.1744 76.831 20.9862C76.5433 20.7979 76.2006 20.7038 75.8029 20.7038C75.5046 20.7038 75.2365 20.7571 74.9986 20.8636C74.7607 20.9702 74.5582 21.1264 74.3913 21.3324C74.2244 21.5384 74.0966 21.7887 74.0078 22.0835C73.919 22.3782 73.8711 22.7173 73.864 23.1009C73.864 23.8714 74.038 24.484 74.386 24.9386C74.734 25.3896 75.2099 25.6151 75.8136 25.6151ZM83.6811 27.1651C83.1626 27.1651 82.6957 27.0728 82.2802 26.8881C81.8683 26.6999 81.5415 26.4229 81.3001 26.0572C81.0621 25.6914 80.9432 25.2404 80.9432 24.7042C80.9432 24.2425 81.0284 23.8608 81.1989 23.5589C81.3693 23.2571 81.6019 23.0156 81.8967 22.8345C82.1914 22.6534 82.5234 22.5167 82.8928 22.4244C83.2656 22.3285 83.6509 22.2592 84.0487 22.2166C84.5281 22.1669 84.9169 22.1225 85.2152 22.0835C85.5135 22.0408 85.7301 21.9769 85.8651 21.8917C86.0036 21.8029 86.0728 21.6662 86.0728 21.4815V21.4496C86.0728 21.0483 85.9538 20.7376 85.7159 20.5174C85.478 20.2972 85.1353 20.1871 84.6879 20.1871C84.2156 20.1871 83.8409 20.2901 83.5639 20.4961C83.2905 20.7021 83.1058 20.9453 83.0099 21.2259L81.2095 20.9702C81.3516 20.473 81.5859 20.0575 81.9126 19.7237C82.2393 19.3864 82.6388 19.1342 83.1112 18.9673C83.5835 18.7969 84.1055 18.7116 84.6772 18.7116C85.0714 18.7116 85.4638 18.7578 85.8544 18.8501C86.245 18.9425 86.6019 19.0952 86.9251 19.3082C87.2482 19.5178 87.5075 19.8036 87.7028 20.1658C87.9016 20.5281 88.0011 20.9808 88.0011 21.5241V27H86.1474V25.8761H86.0835C85.9663 26.1033 85.8011 26.3164 85.5881 26.5153C85.3786 26.7106 85.114 26.8686 84.7944 26.9893C84.4783 27.1065 84.1072 27.1651 83.6811 27.1651ZM84.1818 25.7482C84.5689 25.7482 84.9045 25.6719 85.1886 25.5192C85.4727 25.3629 85.6911 25.157 85.8438 24.9013C86 24.6456 86.0781 24.3668 86.0781 24.065V23.1009C86.0178 23.1506 85.9148 23.1967 85.7692 23.2393C85.6271 23.282 85.4673 23.3192 85.2898 23.3512C85.1122 23.3832 84.9364 23.4116 84.7624 23.4364C84.5884 23.4613 84.4375 23.4826 84.3097 23.5004C84.022 23.5394 83.7646 23.6033 83.5373 23.6921C83.31 23.7809 83.1307 23.9052 82.9993 24.065C82.8679 24.2212 82.8022 24.4237 82.8022 24.6722C82.8022 25.0273 82.9318 25.2955 83.1911 25.4766C83.4503 25.6577 83.7805 25.7482 84.1818 25.7482ZM89.94 27V18.8182H93.3757C94.3452 18.8182 95.1104 19.0117 95.6715 19.3988C96.2362 19.7859 96.5185 20.3256 96.5185 21.0181C96.5185 21.4762 96.3587 21.8509 96.0391 22.142C95.723 22.4297 95.2915 22.6232 94.7447 22.7227C95.1744 22.7582 95.5508 22.8665 95.8739 23.0476C96.2006 23.2287 96.4563 23.4666 96.641 23.7614C96.8256 24.0561 96.918 24.3952 96.918 24.7788C96.918 25.2298 96.799 25.6222 96.5611 25.956C96.3267 26.2862 95.984 26.5437 95.533 26.7283C95.0856 26.9094 94.5423 27 93.9031 27H89.94ZM91.7457 25.4819H93.9031C94.2582 25.4819 94.5369 25.3984 94.7393 25.2315C94.9418 25.0611 95.043 24.8303 95.043 24.5391C95.043 24.2017 94.9418 23.9371 94.7393 23.7454C94.5369 23.5501 94.2582 23.4524 93.9031 23.4524H91.7457V25.4819ZM91.7457 22.206H93.413C93.6758 22.206 93.9013 22.1687 94.0895 22.0941C94.2777 22.016 94.4215 21.9077 94.521 21.7692C94.6204 21.6271 94.6701 21.4585 94.6701 21.2631C94.6701 20.9826 94.5547 20.7624 94.3239 20.6026C94.0966 20.4428 93.7805 20.3629 93.3757 20.3629H91.7457V22.206ZM100.368 24.3899L103.644 18.8182H105.626V27H103.761V21.4229L100.496 27H98.5093V18.8182H100.368V24.3899ZM106.69 20.4002V18.8182H113.849V20.4002H111.202V27H109.337V20.4002H106.69ZM116.689 21.4815H119.102C120.146 21.4815 120.954 21.7354 121.526 22.2433C122.098 22.7511 122.385 23.4169 122.389 24.2408C122.385 24.777 122.254 25.2528 121.995 25.6683C121.739 26.0838 121.366 26.4105 120.876 26.6484C120.39 26.8828 119.798 27 119.102 27H115.384V18.8182H117.243V25.418H119.102C119.521 25.418 119.866 25.3114 120.136 25.0984C120.406 24.8817 120.541 24.6048 120.541 24.2674C120.541 23.9123 120.406 23.6229 120.136 23.3991C119.866 23.1754 119.521 23.0636 119.102 23.0636H116.689V21.4815ZM127.315 20.4002V18.8182H134.474V20.4002H131.827V27H129.962V20.4002H127.315ZM139.295 27.1598C138.474 27.1598 137.766 26.9893 137.169 26.6484C136.576 26.304 136.12 25.8175 135.8 25.1889C135.481 24.5568 135.321 23.8129 135.321 22.957C135.321 22.1154 135.481 21.3768 135.8 20.7411C136.123 20.1019 136.574 19.6048 137.153 19.2496C137.732 18.891 138.412 18.7116 139.193 18.7116C139.698 18.7116 140.173 18.7933 140.621 18.9567C141.072 19.1165 141.47 19.3651 141.814 19.7024C142.162 20.0398 142.436 20.4695 142.634 20.9915C142.833 21.5099 142.933 22.1278 142.933 22.8452V23.4364H136.226V22.1367H141.084C141.081 21.7674 141.001 21.4389 140.845 21.1513C140.688 20.8601 140.47 20.631 140.189 20.4641C139.912 20.2972 139.589 20.2138 139.22 20.2138C138.826 20.2138 138.48 20.3097 138.181 20.5014C137.883 20.6896 137.65 20.9382 137.483 21.2472C137.32 21.5526 137.237 21.8881 137.233 22.2539V23.3885C137.233 23.8643 137.32 24.2727 137.494 24.6136C137.668 24.951 137.911 25.2102 138.224 25.3913C138.536 25.5689 138.902 25.6577 139.321 25.6577C139.602 25.6577 139.856 25.6186 140.083 25.5405C140.31 25.4588 140.507 25.3398 140.674 25.1836C140.841 25.0273 140.967 24.8338 141.052 24.603L142.853 24.8054C142.739 25.2812 142.523 25.6967 142.203 26.0518C141.887 26.4034 141.482 26.6768 140.988 26.8722C140.495 27.0639 139.93 27.1598 139.295 27.1598ZM148.133 27.1598C147.316 27.1598 146.615 26.9805 146.029 26.6218C145.446 26.2631 144.997 25.7678 144.681 25.1357C144.369 24.5 144.212 23.7685 144.212 22.9411C144.212 22.1101 144.372 21.3768 144.692 20.7411C145.011 20.1019 145.462 19.6048 146.045 19.2496C146.631 18.891 147.323 18.7116 148.122 18.7116C148.786 18.7116 149.374 18.8342 149.885 19.0792C150.4 19.3207 150.81 19.6634 151.116 20.1072C151.421 20.5476 151.595 21.0625 151.638 21.652H149.795C149.72 21.2578 149.543 20.9293 149.262 20.6665C148.985 20.4002 148.614 20.267 148.149 20.267C147.755 20.267 147.408 20.3736 147.11 20.5866C146.812 20.7962 146.579 21.098 146.412 21.4922C146.249 21.8864 146.167 22.3587 146.167 22.9091C146.167 23.4666 146.249 23.946 146.412 24.3473C146.576 24.745 146.805 25.0522 147.1 25.2688C147.398 25.4819 147.748 25.5884 148.149 25.5884C148.433 25.5884 148.687 25.5352 148.911 25.4286C149.138 25.3185 149.328 25.1605 149.481 24.9545C149.633 24.7486 149.738 24.4982 149.795 24.2035H151.638C151.592 24.7823 151.421 25.2955 151.127 25.7429C150.832 26.1868 150.43 26.5348 149.923 26.7869C149.415 27.0355 148.818 27.1598 148.133 27.1598ZM152.627 20.4002V18.8182H159.786V20.4002H157.139V27H155.275V20.4002H152.627Z" fill="white"/>
</g>
<defs>
<linearGradient id="paint0_linear_145_1192" x1="70.5" y1="18.0714" x2="79.3436" y2="50.1364" gradientUnits="userSpaceOnUse">
<stop stop-color="white" stop-opacity="0.15"/>
<stop offset="0.51" stop-color="white" stop-opacity="0.8"/>
<stop offset="1" stop-color="white" stop-opacity="0.25"/>
</linearGradient>
<clipPath id="clip0_145_1192">
<rect width="196" height="44" fill="white" transform="translate(0.5)"/>
</clipPath>
</defs>
</svg>
