<svg width="27" height="26" viewBox="0 0 27 26" fill="none" xmlns="http://www.w3.org/2000/svg">
<g id="chat_btn">
<g id="Group">
<path id="Vector" fill-rule="evenodd" clip-rule="evenodd" d="M24.6715 20.3539L26 23.3317L22.6364 23.0127C21.6215 23.9212 20.3832 24.6116 18.9771 24.9883C14.1859 26.2718 9.26299 23.4291 7.97954 18.6378C6.6961 13.8465 9.53878 8.92363 14.3301 7.64019C19.1214 6.35674 24.0442 9.19943 25.3277 13.9907C25.9225 16.2079 25.6305 18.4539 24.6733 20.3539H24.6715Z" stroke="white" stroke-miterlimit="22.9256"/>
<path id="Vector_2" fill-rule="evenodd" clip-rule="evenodd" d="M2.32851 13.8949L1 16.8727L4.36363 16.5537C5.37848 17.4622 6.61687 18.1526 8.02289 18.5293C12.8142 19.8128 17.737 16.9701 19.0205 12.1788C20.3039 7.38752 17.4612 2.46465 12.67 1.1812C7.87868 -0.102241 2.95581 2.74044 1.67236 7.53173C1.07751 9.74891 1.36953 11.9949 2.3267 13.8949H2.32851Z" stroke="white" stroke-miterlimit="22.9256"/>
</g>
</g>
</svg>
