<svg width="39" height="39" viewBox="0 0 39 39" fill="none" xmlns="http://www.w3.org/2000/svg">
<g filter="url(#filter0_d_5_1589)">
<path d="M18.8084 12.8008C17.9451 12.1066 16.7495 11.6563 15.4995 11.5333C14.2254 11.4079 12.9165 11.6342 11.883 12.2456C11.4964 12.4757 11.1519 12.7488 10.8585 13.0771L10.8568 13.0791L10.8567 13.0791C10.3389 13.6525 9.98795 14.269 9.77065 14.9099L9.77058 14.9101C9.53911 15.5918 9.46106 16.2956 9.51768 17.0043L18.8084 12.8008ZM18.8084 12.8008C18.8236 12.8173 18.8401 12.8329 18.8577 12.8474C18.9556 12.9282 19.0541 13.0162 19.1456 13.1042C19.3392 13.2905 19.6454 13.2905 19.839 13.1042C19.9419 13.0052 20.0232 12.9276 20.1137 12.8579C20.1186 12.8542 20.1234 12.8503 20.1281 12.8464C20.9961 12.1257 22.2238 11.652 23.4978 11.5336L23.5005 11.5333C24.7745 11.4079 26.0833 11.6342 27.1167 12.2454C27.5035 12.4755 27.8481 12.7488 28.1415 13.0771L28.1433 13.0791C28.6601 13.6514 29.0118 14.2753 29.2297 14.911C29.461 15.5925 29.5389 16.3033 29.4823 17.0041L29.4823 17.0043C29.4248 17.721 29.1253 18.5388 28.6263 19.431C28.1297 20.3189 27.4523 21.2509 26.6736 22.1908C25.1326 24.0506 23.2325 25.8967 21.6381 27.4459L21.5844 27.498C21.5841 27.4984 21.5837 27.4987 21.5834 27.499C20.89 28.1663 20.267 28.7797 19.7562 29.299L19.4888 29.435L19.2504 29.3051C18.7364 28.776 18.1098 28.1661 17.4165 27.4989C15.8113 25.943 13.8851 24.0757 12.3265 22.1937C11.5478 21.2534 10.8704 20.3206 10.3738 19.4321C9.87481 18.5394 9.57529 17.7212 9.5177 17.0045L18.8084 12.8008Z" stroke="white" stroke-opacity="0.3" stroke-linejoin="round" shape-rendering="crispEdges"/>
</g>
<defs>
<filter id="filter0_d_5_1589" x="5" y="11" width="29" height="27" filterUnits="userSpaceOnUse" color-interpolation-filters="sRGB">
<feFlood flood-opacity="0" result="BackgroundImageFix"/>
<feColorMatrix in="SourceAlpha" type="matrix" values="0 0 0 0 0 0 0 0 0 0 0 0 0 0 0 0 0 0 127 0" result="hardAlpha"/>
<feOffset dy="4"/>
<feGaussianBlur stdDeviation="2"/>
<feComposite in2="hardAlpha" operator="out"/>
<feColorMatrix type="matrix" values="0 0 0 0 0 0 0 0 0 0 0 0 0 0 0 0 0 0 0.25 0"/>
<feBlend mode="normal" in2="BackgroundImageFix" result="effect1_dropShadow_5_1589"/>
<feBlend mode="normal" in="SourceGraphic" in2="effect1_dropShadow_5_1589" result="shape"/>
</filter>
</defs>
</svg>
