<svg width="197" height="45" viewBox="0 0 197 45" fill="none" xmlns="http://www.w3.org/2000/svg">
<g filter="url(#filter0_i_145_1195)">
<rect width="197" height="45" rx="22.5" fill="#594790"/>
<path d="M46.797 20.2717H44.8048C44.748 19.945 44.6432 19.6555 44.4905 19.4034C44.3378 19.1477 44.1479 18.9311 43.9206 18.7536C43.6933 18.576 43.4341 18.4428 43.1429 18.354C42.8552 18.2617 42.5445 18.2156 42.2107 18.2156C41.6177 18.2156 41.0921 18.3647 40.634 18.663C40.1759 18.9577 39.8172 19.391 39.558 19.9627C39.2988 20.5309 39.1692 21.2251 39.1692 22.0455C39.1692 22.88 39.2988 23.5831 39.558 24.1548C39.8208 24.723 40.1795 25.1527 40.634 25.4439C41.0921 25.7315 41.6159 25.8754 42.2054 25.8754C42.5321 25.8754 42.8375 25.8327 43.1216 25.7475C43.4092 25.6587 43.6667 25.5291 43.894 25.3587C44.1248 25.1882 44.3183 24.9787 44.4746 24.7301C44.6344 24.4815 44.7445 24.1974 44.8048 23.8778L46.797 23.8885C46.7224 24.407 46.5609 24.8935 46.3123 25.348C46.0672 25.8026 45.7459 26.2038 45.3481 26.5518C44.9504 26.8963 44.4852 27.1662 43.9525 27.3615C43.4199 27.5533 42.8286 27.6491 42.1788 27.6491C41.2199 27.6491 40.3641 27.4272 39.6113 26.9833C38.8584 26.5394 38.2654 25.8984 37.8322 25.0604C37.3989 24.2223 37.1823 23.2173 37.1823 22.0455C37.1823 20.87 37.4007 19.8651 37.8375 19.0305C38.2743 18.1925 38.8691 17.5515 39.6219 17.1076C40.3748 16.6637 41.2271 16.4418 42.1788 16.4418C42.786 16.4418 43.3506 16.527 43.8726 16.6974C44.3947 16.8679 44.8599 17.1183 45.2682 17.4485C45.6766 17.7752 46.0122 18.1765 46.275 18.6523C46.5413 19.1246 46.7153 19.6644 46.797 20.2717ZM52.0904 27.6598C51.2914 27.6598 50.5989 27.484 50.013 27.1325C49.4271 26.7809 48.9725 26.2891 48.6494 25.657C48.3298 25.0249 48.17 24.2862 48.17 23.4411C48.17 22.5959 48.3298 21.8555 48.6494 21.2198C48.9725 20.5842 49.4271 20.0906 50.013 19.739C50.5989 19.3874 51.2914 19.2116 52.0904 19.2116C52.8894 19.2116 53.5819 19.3874 54.1678 19.739C54.7538 20.0906 55.2065 20.5842 55.5261 21.2198C55.8493 21.8555 56.0109 22.5959 56.0109 23.4411C56.0109 24.2862 55.8493 25.0249 55.5261 25.657C55.2065 26.2891 54.7538 26.7809 54.1678 27.1325C53.5819 27.484 52.8894 27.6598 52.0904 27.6598ZM52.1011 26.1151C52.5343 26.1151 52.8965 25.9961 53.1877 25.7582C53.4789 25.5167 53.6955 25.1935 53.8376 24.7887C53.9832 24.3839 54.056 23.9329 54.056 23.4357C54.056 22.935 53.9832 22.4822 53.8376 22.0774C53.6955 21.669 53.4789 21.3441 53.1877 21.1026C52.8965 20.8612 52.5343 20.7404 52.1011 20.7404C51.6572 20.7404 51.2879 20.8612 50.9931 21.1026C50.7019 21.3441 50.4835 21.669 50.3379 22.0774C50.1959 22.4822 50.1249 22.935 50.1249 23.4357C50.1249 23.9329 50.1959 24.3839 50.3379 24.7887C50.4835 25.1935 50.7019 25.5167 50.9931 25.7582C51.2879 25.9961 51.6572 26.1151 52.1011 26.1151ZM57.1947 25.2575H59.107C59.1248 25.5629 59.2615 25.799 59.5172 25.9659C59.7729 26.1328 60.1049 26.2163 60.5133 26.2163C60.9288 26.2163 61.2785 26.1257 61.5626 25.9446C61.8503 25.7599 61.9941 25.4812 61.9941 25.1083C61.9941 24.8881 61.9391 24.6946 61.829 24.5277C61.7189 24.3572 61.5644 24.2259 61.3655 24.1335C61.1667 24.0412 60.9323 23.995 60.6624 23.995H59.4106V22.6261H60.6624C61.0637 22.6261 61.3673 22.5337 61.5733 22.3491C61.7828 22.1644 61.8876 21.9318 61.8876 21.6513C61.8876 21.3494 61.7775 21.1044 61.5573 20.9162C61.3407 20.728 61.0406 20.6339 60.6571 20.6339C60.2736 20.6339 59.954 20.7209 59.6983 20.8949C59.4462 21.0689 59.3148 21.2926 59.3041 21.5661H57.4025C57.4096 21.0902 57.5516 20.6765 57.8286 20.3249C58.1092 19.9734 58.4856 19.6999 58.9579 19.5046C59.4337 19.3093 59.9699 19.2116 60.5665 19.2116C61.2057 19.2116 61.7579 19.3075 62.2231 19.4993C62.6883 19.6911 63.047 19.9592 63.2991 20.3036C63.5513 20.6445 63.6773 21.0458 63.6773 21.5075C63.6773 21.9513 63.5388 22.3189 63.2619 22.6101C62.9849 22.8977 62.612 23.1037 62.1432 23.228V23.3132C62.4664 23.331 62.7576 23.4233 63.0168 23.5902C63.2761 23.7536 63.482 23.9755 63.6347 24.256C63.7874 24.5366 63.8638 24.8615 63.8638 25.2308C63.8638 25.7315 63.7199 26.1648 63.4323 26.5305C63.1447 26.8928 62.7487 27.1715 62.2445 27.3668C61.7437 27.5621 61.1702 27.6598 60.5239 27.6598C59.8954 27.6598 59.3325 27.5657 58.8354 27.3775C58.3418 27.1857 57.9494 26.9105 57.6582 26.5518C57.367 26.1932 57.2125 25.7617 57.1947 25.2575ZM64.6574 29.8757V25.9126H65.3073C65.4813 25.7777 65.6269 25.5948 65.7441 25.364C65.8613 25.1296 65.9572 24.8544 66.0317 24.5384C66.1099 24.2187 66.1738 23.8619 66.2235 23.4677C66.2732 23.07 66.3176 22.642 66.3567 22.1839L66.591 19.3182H72.5037V25.9126H73.7714V29.8757H71.9071V27.5H66.5538V29.8757H64.6574ZM67.2888 25.9126H70.6606V20.8736H68.2636L68.1358 22.1839C68.0648 23.0504 67.9707 23.7926 67.8535 24.4105C67.7363 25.0284 67.5481 25.5291 67.2888 25.9126ZM77.5654 27.6651C77.0469 27.6651 76.5799 27.5728 76.1645 27.3881C75.7525 27.1999 75.4258 26.9229 75.1843 26.5572C74.9464 26.1914 74.8275 25.7404 74.8275 25.2042C74.8275 24.7425 74.9127 24.3608 75.0831 24.0589C75.2536 23.7571 75.4862 23.5156 75.7809 23.3345C76.0757 23.1534 76.4077 23.0167 76.777 22.9244C77.1499 22.8285 77.5352 22.7592 77.9329 22.7166C78.4123 22.6669 78.8012 22.6225 79.0995 22.5835C79.3978 22.5408 79.6144 22.4769 79.7493 22.3917C79.8878 22.3029 79.9571 22.1662 79.9571 21.9815V21.9496C79.9571 21.5483 79.8381 21.2376 79.6002 21.0174C79.3623 20.7972 79.0196 20.6871 78.5721 20.6871C78.0998 20.6871 77.7252 20.7901 77.4482 20.9961C77.1748 21.2021 76.9901 21.4453 76.8942 21.7259L75.0938 21.4702C75.2358 20.973 75.4702 20.5575 75.7969 20.2237C76.1236 19.8864 76.5231 19.6342 76.9954 19.4673C77.4677 19.2969 77.9897 19.2116 78.5615 19.2116C78.9557 19.2116 79.3481 19.2578 79.7387 19.3501C80.1293 19.4425 80.4862 19.5952 80.8093 19.8082C81.1325 20.0178 81.3917 20.3036 81.587 20.6658C81.7859 21.0281 81.8853 21.4808 81.8853 22.0241V27.5H80.0316V26.3761H79.9677C79.8505 26.6033 79.6854 26.8164 79.4723 27.0153C79.2628 27.2106 78.9983 27.3686 78.6787 27.4893C78.3626 27.6065 77.9915 27.6651 77.5654 27.6651ZM78.0661 26.2482C78.4532 26.2482 78.7888 26.1719 79.0728 26.0192C79.3569 25.8629 79.5753 25.657 79.728 25.4013C79.8843 25.1456 79.9624 24.8668 79.9624 24.565V23.6009C79.902 23.6506 79.7991 23.6967 79.6535 23.7393C79.5114 23.782 79.3516 23.8192 79.1741 23.8512C78.9965 23.8832 78.8207 23.9116 78.6467 23.9364C78.4727 23.9613 78.3218 23.9826 78.1939 24.0004C77.9063 24.0394 77.6488 24.1033 77.4216 24.1921C77.1943 24.2809 77.015 24.4052 76.8836 24.565C76.7522 24.7212 76.6865 24.9237 76.6865 25.1722C76.6865 25.5273 76.8161 25.7955 77.0753 25.9766C77.3346 26.1577 77.6648 26.2482 78.0661 26.2482ZM82.9081 20.9002V19.3182H90.0672V20.9002H87.4198V27.5H85.5554V20.9002H82.9081ZM92.9076 21.9815H95.3206C96.3647 21.9815 97.1725 22.2354 97.7443 22.7433C98.316 23.2511 98.6036 23.9169 98.6072 24.7408C98.6036 25.277 98.4723 25.7528 98.213 26.1683C97.9573 26.5838 97.5845 26.9105 97.0944 27.1484C96.6079 27.3828 96.0166 27.5 95.3206 27.5H91.6026V19.3182H93.4616V25.918H95.3206C95.7397 25.918 96.0841 25.8114 96.354 25.5984C96.6239 25.3817 96.7588 25.1048 96.7588 24.7674C96.7588 24.4123 96.6239 24.1229 96.354 23.8991C96.0841 23.6754 95.7397 23.5636 95.3206 23.5636H92.9076V21.9815ZM103.416 27.5L103.405 25.9126H103.688C103.901 25.9126 104.08 25.8647 104.226 25.7688C104.371 25.6729 104.492 25.5131 104.588 25.2894C104.684 25.0621 104.758 24.7567 104.811 24.3732C104.865 23.9897 104.902 23.5121 104.923 22.9403L105.067 19.3182H111.033V27.5H109.169V20.9002H106.82L106.692 23.5369C106.66 24.2187 106.583 24.81 106.463 25.3107C106.346 25.8079 106.179 26.218 105.962 26.5412C105.749 26.8643 105.481 27.1058 105.158 27.2656C104.835 27.4219 104.453 27.5 104.012 27.5H103.416ZM116.597 27.6598C115.777 27.6598 115.068 27.4893 114.471 27.1484C113.878 26.804 113.422 26.3175 113.102 25.6889C112.783 25.0568 112.623 24.3129 112.623 23.457C112.623 22.6154 112.783 21.8768 113.102 21.2411C113.426 20.6019 113.877 20.1048 114.455 19.7496C115.034 19.391 115.714 19.2116 116.496 19.2116C117 19.2116 117.476 19.2933 117.923 19.4567C118.374 19.6165 118.772 19.8651 119.116 20.2024C119.464 20.5398 119.738 20.9695 119.937 21.4915C120.136 22.0099 120.235 22.6278 120.235 23.3452V23.9364H113.529V22.6367H118.387C118.383 22.2674 118.303 21.9389 118.147 21.6513C117.991 21.3601 117.772 21.131 117.492 20.9641C117.215 20.7972 116.892 20.7138 116.522 20.7138C116.128 20.7138 115.782 20.8097 115.484 21.0014C115.185 21.1896 114.953 21.4382 114.786 21.7472C114.622 22.0526 114.539 22.3881 114.535 22.7539V23.8885C114.535 24.3643 114.622 24.7727 114.796 25.1136C114.97 25.451 115.214 25.7102 115.526 25.8913C115.839 26.0689 116.204 26.1577 116.623 26.1577C116.904 26.1577 117.158 26.1186 117.385 26.0405C117.612 25.9588 117.81 25.8398 117.976 25.6836C118.143 25.5273 118.269 25.3338 118.355 25.103L120.155 25.3054C120.041 25.7812 119.825 26.1967 119.505 26.5518C119.189 26.9034 118.784 27.1768 118.291 27.3722C117.797 27.5639 117.232 27.6598 116.597 27.6598ZM121.866 27.5V19.3182H123.795V22.6207H124.498L126.959 19.3182H129.281L126.25 23.3345L129.313 27.5H126.98L124.737 24.4158H123.795V27.5H121.866ZM137.315 19.3182V26.0618H138.567V30.1314H136.681V27.5H130.406V19.3182H132.265V25.918H135.472V19.3182H137.315ZM142.007 24.8899L145.282 19.3182H147.264V27.5H145.4V21.9229L142.134 27.5H140.148V19.3182H142.007V24.8899ZM153.564 22.6687V24.256H149.159V22.6687H153.564ZM150.688 19.3182V27.5H148.754V19.3182H150.688ZM156.036 27.6598C155.247 27.6598 154.564 27.4805 153.985 27.1218C153.41 26.7631 152.964 26.266 152.648 25.6303C152.332 24.9947 152.174 24.2596 152.174 23.4251C152.174 22.5906 152.332 21.8572 152.648 21.2251C152.964 20.593 153.41 20.0994 153.985 19.7443C154.564 19.3892 155.247 19.2116 156.036 19.2116C156.821 19.2116 157.501 19.3892 158.076 19.7443C158.655 20.0994 159.102 20.593 159.418 21.2251C159.738 21.8572 159.898 22.5906 159.898 23.4251C159.898 24.2596 159.738 24.9947 159.418 25.6303C159.102 26.266 158.655 26.7631 158.076 27.1218C157.501 27.4805 156.821 27.6598 156.036 27.6598ZM156.036 26.0618C156.501 26.0618 156.881 25.9446 157.176 25.7102C157.47 25.4759 157.687 25.1598 157.826 24.7621C157.964 24.3643 158.033 23.9187 158.033 23.4251C158.033 22.9315 157.964 22.4858 157.826 22.0881C157.687 21.6903 157.47 21.3761 157.176 21.1452C156.881 20.9109 156.501 20.7937 156.036 20.7937C155.567 20.7937 155.183 20.9109 154.885 21.1452C154.59 21.3761 154.374 21.6903 154.235 22.0881C154.097 22.4858 154.028 22.9315 154.028 23.4251C154.028 23.9222 154.097 24.3697 154.235 24.7674C154.374 25.1651 154.59 25.4812 154.885 25.7156C155.183 25.9464 155.567 26.0618 156.036 26.0618Z" fill="white"/>
</g>
<defs>
<filter id="filter0_i_145_1195" x="0" y="0" width="197" height="46" filterUnits="userSpaceOnUse" color-interpolation-filters="sRGB">
<feFlood flood-opacity="0" result="BackgroundImageFix"/>
<feBlend mode="normal" in="SourceGraphic" in2="BackgroundImageFix" result="shape"/>
<feColorMatrix in="SourceAlpha" type="matrix" values="0 0 0 0 0 0 0 0 0 0 0 0 0 0 0 0 0 0 127 0" result="hardAlpha"/>
<feOffset dy="1"/>
<feGaussianBlur stdDeviation="0.5"/>
<feComposite in2="hardAlpha" operator="arithmetic" k2="-1" k3="1"/>
<feColorMatrix type="matrix" values="0 0 0 0 0.494118 0 0 0 0 0.435294 0 0 0 0 0.658824 0 0 0 1 0"/>
<feBlend mode="normal" in2="shape" result="effect1_innerShadow_145_1195"/>
</filter>
</defs>
</svg>
