<svg width="45" height="45" viewBox="0 0 45 45" fill="none" xmlns="http://www.w3.org/2000/svg">
<path d="M22.5 0.5C34.6529 0.5 44.5 10.297 44.5 22.3763V22.6237C44.5 34.703 34.6529 44.5 22.5 44.5C10.3471 44.5 0.5 34.703 0.5 22.6237V22.3763C0.5 10.297 10.3471 0.5 22.5 0.5Z" fill="white" fill-opacity="0.05" stroke="url(#paint0_linear_145_1182)"/>
<path fill-rule="evenodd" clip-rule="evenodd" d="M36.1104 28.8375C33.703 33.9598 28.4551 37.4852 22.3733 37.4852C16.0675 37.4852 10.6356 33.6523 8.35938 28.2257L15.5502 20.698L26.0404 29.797L31.7563 25.4013L36.1101 28.8375H36.1104ZM25.9879 14.3594C28.1637 14.3594 29.9285 16.0983 29.9285 18.2416C29.9285 20.3867 28.164 22.1256 25.9879 22.1256C23.812 22.1256 22.0472 20.3867 22.0472 18.2416C22.0472 16.0983 23.8117 14.3594 25.9879 14.3594Z" fill="white"/>
<defs>
<linearGradient id="paint0_linear_145_1182" x1="16.0714" y1="18.4821" x2="33.3482" y2="32.5446" gradientUnits="userSpaceOnUse">
<stop stop-color="white" stop-opacity="0.15"/>
<stop offset="0.51" stop-color="white" stop-opacity="0.8"/>
<stop offset="1" stop-color="white" stop-opacity="0.25"/>
</linearGradient>
</defs>
</svg>
