<svg width="46" height="45" viewBox="0 0 46 45" fill="none" xmlns="http://www.w3.org/2000/svg">
<path d="M23.293 0.5C35.4458 0.5 45.293 10.297 45.293 22.3763V22.6237C45.293 34.703 35.4458 44.5 23.293 44.5C11.1401 44.5 1.29297 34.703 1.29297 22.6237V22.3763C1.29297 10.297 11.1401 0.5 23.293 0.5Z" fill="white" fill-opacity="0.05" stroke="url(#paint0_linear_145_1179)"/>
<path d="M29.7185 14.6805C29.398 14.4038 29.3634 13.9176 29.6401 13.5971C29.9168 13.2767 30.403 13.2421 30.7235 13.5188C31.9709 14.5969 32.9868 15.9423 33.6825 17.4629C34.3528 18.9269 34.7278 20.5567 34.7278 22.2648C34.7278 23.8526 34.4018 25.3785 33.8155 26.7644C33.2072 28.2011 32.3134 29.494 31.2115 30.563C30.9075 30.858 30.4195 30.8506 30.1243 30.5466C29.8294 30.2426 29.8367 29.7546 30.1407 29.4594C31.0985 28.5307 31.8723 27.4109 32.3987 26.1673C32.9032 24.9765 33.1837 23.6546 33.1837 22.2651C33.1837 20.7738 32.8595 19.3589 32.2843 18.1006C31.6816 16.7822 30.7983 15.6151 29.7188 14.6808L29.7185 14.6805ZM17.4054 25.1235L23.0849 28.6797V22.1973V15.7149L17.4054 19.2694V22.1973V25.1235ZM11.957 19.2694H15.9029V25.1235H11.957V19.2694ZM26.4442 17.982C26.1074 17.7253 26.0419 17.2408 26.2987 16.9039C26.5555 16.5671 27.0399 16.5016 27.3768 16.7584C28.2199 17.4031 28.9118 18.2388 29.3854 19.1984C29.8426 20.1253 30.1011 21.1685 30.1011 22.2648C30.1011 23.239 29.8972 24.1713 29.533 25.0144L29.4984 25.0854C29.1213 25.9322 28.577 26.6952 27.9141 27.3161C27.6045 27.6075 27.1165 27.5928 26.8251 27.2833C26.5337 26.9737 26.5484 26.4857 26.858 26.1943C27.3789 25.7063 27.8032 25.1144 28.0925 24.4662L28.1163 24.4061C28.3986 23.7523 28.557 23.0257 28.557 22.2645C28.557 21.405 28.3586 20.5928 28.0053 19.8791C27.6356 19.1326 27.0986 18.4824 26.4448 17.9817L26.4442 17.982Z" fill="white"/>
<defs>
<linearGradient id="paint0_linear_145_1179" x1="16.8644" y1="18.4821" x2="34.1412" y2="32.5446" gradientUnits="userSpaceOnUse">
<stop stop-color="white" stop-opacity="0.15"/>
<stop offset="0.51" stop-color="white" stop-opacity="0.8"/>
<stop offset="1" stop-color="white" stop-opacity="0.25"/>
</linearGradient>
</defs>
</svg>
