<svg width="132" height="44" viewBox="0 0 132 44" fill="none" xmlns="http://www.w3.org/2000/svg">
<g clip-path="url(#clip0_145_1185)">
<rect x="0.5" y="0.5" width="131" height="43" rx="21.5" fill="white" fill-opacity="0.05" stroke="url(#paint0_linear_145_1185)"/>
<path d="M30.6395 14.5H46.1395M18.8608 29.5H46.1395M34.1395 22H46.1395" stroke="white" stroke-linecap="round" stroke-linejoin="round"/>
<path d="M19.1396 23.5L20.5969 20.5856M28.1396 23.5L26.6824 20.5856M26.6824 20.5856L23.6396 14.5L20.5969 20.5856M26.6824 20.5856H20.5969" stroke="white" stroke-linecap="round" stroke-linejoin="round"/>
<path d="M60.6563 25.2528V17.8807H62.3289V25.2528H60.6563ZM57.8066 22.4031V20.7305H65.1787V22.4031H57.8066ZM70.8583 17.7475V16.0909H79.5621V17.7475H76.1903V27H74.2301V17.7475H70.8583ZM83.5905 27.1598C82.7702 27.1598 82.0617 26.9893 81.4651 26.6484C80.8721 26.304 80.4157 25.8175 80.0961 25.1889C79.7765 24.5568 79.6167 23.8129 79.6167 22.957C79.6167 22.1154 79.7765 21.3768 80.0961 20.7411C80.4193 20.1019 80.8703 19.6048 81.4491 19.2496C82.028 18.891 82.708 18.7116 83.4893 18.7116C83.9935 18.7116 84.4694 18.7933 84.9168 18.9567C85.3678 19.1165 85.7655 19.3651 86.11 19.7024C86.458 20.0398 86.7314 20.4695 86.9303 20.9915C87.1292 21.5099 87.2286 22.1278 87.2286 22.8452V23.4364H80.5223V22.1367H85.3802C85.3767 21.7674 85.2968 21.4389 85.1405 21.1513C84.9843 20.8601 84.7659 20.631 84.4854 20.4641C84.2084 20.2972 83.8852 20.2138 83.5159 20.2138C83.1217 20.2138 82.7755 20.3097 82.4772 20.5014C82.1789 20.6896 81.9463 20.9382 81.7794 21.2472C81.616 21.5526 81.5326 21.8881 81.529 22.2539V23.3885C81.529 23.8643 81.616 24.2727 81.79 24.6136C81.964 24.951 82.2073 25.2102 82.5198 25.3913C82.8323 25.5689 83.1981 25.6577 83.6171 25.6577C83.8976 25.6577 84.1515 25.6186 84.3788 25.5405C84.6061 25.4588 84.8032 25.3398 84.9701 25.1836C85.137 25.0273 85.2631 24.8338 85.3483 24.603L87.1487 24.8054C87.0351 25.2812 86.8184 25.6967 86.4988 26.0518C86.1828 26.4034 85.778 26.6768 85.2844 26.8722C84.7907 27.0639 84.2261 27.1598 83.5905 27.1598ZM88.8599 27V18.8182H90.7882V22.1207H91.4913L93.9522 18.8182H96.2747L93.2438 22.8345L96.3066 27H93.9735L91.731 23.9158H90.7882V27H88.8599ZM100.632 27.1598C99.8152 27.1598 99.1138 26.9805 98.5279 26.6218C97.9455 26.2631 97.4963 25.7678 97.1802 25.1357C96.8677 24.5 96.7115 23.7685 96.7115 22.9411C96.7115 22.1101 96.8713 21.3768 97.1909 20.7411C97.5105 20.1019 97.9615 19.6048 98.5439 19.2496C99.1298 18.891 99.8223 18.7116 100.621 18.7116C101.285 18.7116 101.873 18.8342 102.384 19.0792C102.899 19.3207 103.309 19.6634 103.615 20.1072C103.92 20.5476 104.094 21.0625 104.137 21.652H102.294C102.219 21.2578 102.042 20.9293 101.761 20.6665C101.484 20.4002 101.113 20.267 100.648 20.267C100.254 20.267 99.9075 20.3736 99.6092 20.5866C99.3109 20.7962 99.0783 21.098 98.9114 21.4922C98.748 21.8864 98.6664 22.3587 98.6664 22.9091C98.6664 23.4666 98.748 23.946 98.9114 24.3473C99.0748 24.745 99.3038 25.0522 99.5985 25.2688C99.8968 25.4819 100.247 25.5884 100.648 25.5884C100.932 25.5884 101.186 25.5352 101.41 25.4286C101.637 25.3185 101.827 25.1605 101.98 24.9545C102.132 24.7486 102.237 24.4982 102.294 24.2035H104.137C104.091 24.7823 103.92 25.2955 103.626 25.7429C103.331 26.1868 102.93 26.5348 102.422 26.7869C101.914 27.0355 101.317 27.1598 100.632 27.1598ZM105.126 20.4002V18.8182H112.285V20.4002H109.638V27H107.774V20.4002H105.126Z" fill="white"/>
</g>
<defs>
<linearGradient id="paint0_linear_145_1185" x1="47.1429" y1="18.0714" x2="59.2437" y2="47.6199" gradientUnits="userSpaceOnUse">
<stop stop-color="white" stop-opacity="0.15"/>
<stop offset="0.51" stop-color="white" stop-opacity="0.8"/>
<stop offset="1" stop-color="white" stop-opacity="0.25"/>
</linearGradient>
<clipPath id="clip0_145_1185">
<rect width="132" height="44" fill="white"/>
</clipPath>
</defs>
</svg>
