<svg width="46" height="45" viewBox="0 0 46 45" fill="none" xmlns="http://www.w3.org/2000/svg">
<path d="M23.4316 0.5C35.5845 0.5 45.4316 10.297 45.4316 22.3763V22.6237C45.4316 34.703 35.5845 44.5 23.4316 44.5C11.2788 44.5 1.43164 34.703 1.43164 22.6237V22.3763C1.43164 10.297 11.2788 0.5 23.4316 0.5Z" fill="white" fill-opacity="0.05" stroke="url(#paint0_linear_145_1173)"/>
<path d="M19.3415 19.7429C19.0448 18.8362 18.5603 18.1314 17.8939 17.6269C17.2275 17.1225 16.4079 16.8696 15.4319 16.8696C14.8201 16.8696 14.2502 16.9861 13.7203 17.2229C13.1886 17.4632 12.7205 17.8039 12.32 18.2481C11.9212 18.698 11.6081 19.2643 11.3821 19.9542C11.1544 20.6444 11.0397 21.4182 11.0397 22.2759C11.0397 23.1319 11.1544 23.9057 11.3857 24.5959C11.6134 25.2878 11.9321 25.8559 12.3361 26.3019C12.7384 26.748 13.2138 27.0904 13.7602 27.3272C14.3083 27.5658 14.902 27.6823 15.5393 27.6823C16.7084 27.6823 17.6627 27.3272 18.3963 26.608C19.1319 25.8923 19.509 24.931 19.5307 23.7273H15.9126V22.2759H21.1367V23.7273C21.1367 24.8215 20.8982 25.7849 20.421 26.6206C19.9421 27.4563 19.2831 28.0975 18.4362 28.5418C17.5876 28.9916 16.6245 29.2138 15.539 29.2138C14.6341 29.2138 13.8054 29.05 13.0498 28.7258C12.2924 28.3998 11.6512 27.9429 11.1178 27.351C10.5825 26.7591 10.1673 26.029 9.87592 25.1587C9.57925 24.2936 9.43164 23.3306 9.43164 22.2762C9.43164 21.2275 9.57924 20.2641 9.87973 19.3955C10.1746 18.5252 10.5863 17.7948 11.1142 17.2032C11.6386 16.6113 12.2742 16.1506 13.0116 15.8246C13.7508 15.5004 14.5595 15.3384 15.4316 15.3384C16.3859 15.3384 17.258 15.5224 18.0538 15.8939C18.8514 16.2615 19.5087 16.7789 20.0278 17.4453C20.5431 18.1135 20.8891 18.8764 21.0584 19.7432H19.3412L19.3415 19.7429ZM25.6381 15.5221V29.028H23.9755V15.5221H25.6381ZM28.9558 29.028V15.5221H37.1827V16.9752H30.6202V21.5385H36.5656V22.9861H30.6202V29.028H28.9558Z" fill="white"/>
<defs>
<linearGradient id="paint0_linear_145_1173" x1="17.0031" y1="18.4821" x2="34.2799" y2="32.5446" gradientUnits="userSpaceOnUse">
<stop stop-color="white" stop-opacity="0.15"/>
<stop offset="0.51" stop-color="white" stop-opacity="0.8"/>
<stop offset="1" stop-color="white" stop-opacity="0.25"/>
</linearGradient>
</defs>
</svg>
