<svg width="17" height="15" viewBox="0 0 17 15" fill="none" xmlns="http://www.w3.org/2000/svg">
<g id="ico_course block">
<path id="l1" d="M15.498 3.04451L15.5513 2.44782L14.9547 2.50205C9.31961 3.01434 6.08126 4.62111 4.55717 6.59775C3.00395 8.61215 3.30941 10.9061 4.52161 12.4905L4.85932 12.9319L5.26269 12.5496C6.07558 11.7791 6.77408 11.1457 7.35536 10.6446C6.85429 11.2259 6.22095 11.9244 5.45042 12.7373L5.06807 13.1407L5.50949 13.4784C7.0941 14.6907 9.39214 14.9959 11.4085 13.443C13.3876 11.9188 14.9944 8.68004 15.498 3.04451Z" stroke="white"/>
<path id="l2" d="M9 1C0.879927 1.73819 0.0791792 5.60429 1.66816 7.68123" stroke="white"/>
</g>
</svg>
