<svg width="91" height="91" viewBox="0 0 91 91" fill="none" xmlns="http://www.w3.org/2000/svg">
<path d="M53.4681 31.0371C53.4681 34.493 50.7655 37.3191 47.4572 37.3191C44.1528 37.3191 41.4463 40.1451 41.4463 43.601V60.996C41.7333 64.1927 39.7602 67.0587 36.4637 67.9396" stroke="white" stroke-width="1.2" stroke-miterlimit="22.9256" stroke-linecap="square" stroke-linejoin="round"/>
<path d="M56.421 67.9403C53.1245 67.0554 51.1515 64.1935 51.4385 60.9967C51.4385 57.497 51.4385 46.3999 51.4385 45.0088" stroke="white" stroke-width="1.2" stroke-miterlimit="22.9256" stroke-linecap="square" stroke-linejoin="round"/>
<path d="M51.7574 55.21C60.0962 61.5438 71.8988 52.5553 66.6013 43.3038C68.0921 42.2036 68.8734 40.4976 68.985 38.7637C69.0966 37.0497 68.5545 35.3118 67.4065 34.112C64.983 31.5809 60.2676 32.0154 58.45 35.1962" stroke="white" stroke-width="1.2" stroke-miterlimit="22.9256" stroke-linecap="square" stroke-linejoin="round"/>
<path d="M37.5478 32.8818C37.5478 32.8818 36.5234 35.955 38.6799 37.6411" stroke="white" stroke-width="1.2" stroke-miterlimit="22.9256" stroke-linecap="square" stroke-linejoin="round"/>
<path d="M48.8323 37.2423C48.8323 37.2423 49.9045 37.2184 50.1955 37.2224C51.1521 37.2224 53.2169 37.6369 54.026 39.5701" stroke="white" stroke-width="1.2" stroke-miterlimit="22.9256" stroke-linecap="square" stroke-linejoin="round"/>
<path d="M46.4241 67.9405V54.4518C46.4241 51.251 44.3075 48.7717 41.3459 48.2535C38.5198 47.7593 35.2712 48.2775 35.7496 43.5979C30.8747 46.8784 24.0586 43.4624 24.0586 37.4076C24.0586 32.6403 28.4591 29.1327 33.071 30.1132C31.9031 23.5443 39.7874 21.1566 42.9164 25.3061" stroke="white" stroke-width="1.2" stroke-miterlimit="22.9256" stroke-linecap="square" stroke-linejoin="round"/>
<path d="M62.7874 32.348C62.6798 31.9932 62.5562 31.6384 62.4167 31.2917C60.4835 26.4686 55.764 23.0605 50.2514 23.0605C45.3606 23.0605 41.0955 25.7431 38.8434 29.7132C38.1937 30.8612 37.9864 31.7221 37.544 32.8781C36.3841 36.1705 32.7409 37.9124 29.4524 36.7485" stroke="white" stroke-width="1.2" stroke-miterlimit="22.9256" stroke-linecap="square" stroke-linejoin="round"/>
<path d="M60.6622 40.624C60.6622 45.6743 56.6085 49.7759 51.5781 49.8516" stroke="white" stroke-width="1.2" stroke-miterlimit="22.9256" stroke-linecap="square" stroke-linejoin="round"/>
<path fill-rule="evenodd" clip-rule="evenodd" d="M42.8061 25.2505C43.5088 24.7836 43.3913 24.3923 43.1445 24.2816C42.9741 24.802 42.911 24.7832 43.0532 24.2544C42.786 24.212 42.4724 24.4758 42.8061 25.2505Z" fill="white"/>
<path fill-rule="evenodd" clip-rule="evenodd" d="M60.5893 56.95C62.2031 57.4361 62.6555 56.7568 62.5114 56.2358C61.4935 56.6369 61.442 56.5158 62.4369 56.0608C62.1615 55.5956 61.356 55.4493 60.5893 56.95Z" fill="white"/>
<path fill-rule="evenodd" clip-rule="evenodd" d="M32.4707 29.313C31.5148 29.5645 31.4968 30.0428 31.7285 30.2592C32.1145 29.7466 32.1774 29.7914 31.8194 30.3238C32.0996 30.472 32.5472 30.2983 32.4707 29.313Z" fill="white"/>
</svg>
