<svg width="42" height="42" viewBox="0 0 42 42" fill="none" xmlns="http://www.w3.org/2000/svg">
<path d="M32.6365 37.2643C29.3568 39.6184 25.3394 41 21 41C9.95372 41 1 32.0463 1 21C1 9.95372 9.95372 1 21 1C32.0463 1 41 9.95372 41 21C41 24.2394 40.2287 27.3045 38.8605 30.0141" stroke="white" stroke-opacity="0.3" stroke-miterlimit="22.9256" stroke-linecap="round" stroke-linejoin="round"/>
<path d="M29.0549 12.2133H12.9382C11.4862 12.2133 10.3091 13.4834 10.3091 15.0503V25.4326C10.3091 26.9994 11.4862 28.2696 12.9382 28.2696H29.0549C30.5069 28.2696 31.684 26.9994 31.684 25.4326V15.0503C31.684 13.4834 30.5069 12.2133 29.0549 12.2133Z" stroke="white" stroke-opacity="0.3" stroke-miterlimit="22.9256" stroke-linecap="round" stroke-linejoin="round"/>
<path d="M24.4675 32.1732H17.5259" stroke="white" stroke-opacity="0.3" stroke-miterlimit="22.9256" stroke-linecap="round" stroke-linejoin="round"/>
<path d="M10.3091 23.6953H31.684" stroke="white" stroke-opacity="0.3" stroke-miterlimit="22.9256" stroke-linecap="round" stroke-linejoin="round"/>
</svg>
