<svg width="21" height="20" viewBox="0 0 21 20" fill="none" xmlns="http://www.w3.org/2000/svg">
<g id="icon fav2">
<path id="icon fav2_2" d="M10.1759 2.33478C10.2839 2.42391 10.392 2.52046 10.4923 2.61702C10.5926 2.52046 10.6929 2.42391 10.8087 2.33478C11.7657 1.54007 13.0932 1.03502 14.4515 0.908762C15.8098 0.775073 17.2299 1.01274 18.3721 1.68862C18.7966 1.94114 19.1825 2.24566 19.5143 2.61702C20.0777 3.2409 20.4636 3.92421 20.7029 4.62236C20.9576 5.37251 21.0425 6.15236 20.9807 6.91737C20.7183 10.1853 16.134 14.6194 12.9311 17.7314C12.2133 18.4221 11.5728 19.0534 11.0557 19.5807L10.4807 19.873L9.94432 19.5807C9.42723 19.046 8.78666 18.4221 8.0689 17.7314C4.86604 14.6268 0.28169 10.1853 0.0192866 6.91737C-0.0424555 6.14494 0.0424405 5.37251 0.297126 4.62236C0.536377 3.91678 0.922265 3.2409 1.48566 2.61702C1.81752 2.24566 2.20341 1.94114 2.62789 1.68862C3.77012 1.01274 5.19018 0.775073 6.54851 0.908762C7.90683 1.04245 9.22657 1.54007 10.1836 2.33478H10.1759Z" fill="#D9D9D9" fill-opacity="0.3"/>
</g>
</svg>
