<svg width="64" height="64" viewBox="0 0 64 64" fill="none" xmlns="http://www.w3.org/2000/svg">
<path d="M44.1237 20.4195L44.177 19.8228L43.5804 19.8771C31.0728 21.0141 24.0594 24.5693 20.8145 28.7776C17.5405 33.0237 18.1796 37.8326 20.7366 41.1749L21.0743 41.6163L21.4777 41.234C24.4184 38.4465 26.7009 36.451 28.2948 35.2082C29.0157 34.6461 29.5837 34.2474 30.0011 33.9995C29.7532 34.417 29.3546 34.985 28.7925 35.7059C27.5497 37.2997 25.5542 39.5822 22.7667 42.523L22.3843 42.9263L22.8258 43.2641C26.1682 45.8212 30.9865 46.4599 35.2372 43.1863C39.4507 39.9413 43.0058 32.9275 44.1237 20.4195ZM30.6203 33.7132C30.6199 33.7137 30.6138 33.7149 30.6034 33.7151C30.6155 33.7128 30.6208 33.7127 30.6203 33.7132ZM30.2855 33.3972C30.2857 33.3868 30.2869 33.3807 30.2874 33.3803C30.2879 33.3799 30.2878 33.3851 30.2855 33.3972Z" stroke="white"/>
<path d="M13.9569 6.7886C19.0381 3.14448 25.2691 1 32 1C49.1209 1 63 14.8792 63 32C63 49.1209 49.1209 63 32 63C14.8791 63 0.999994 49.1209 0.999996 32C0.999996 26.9737 2.19471 22.2274 4.31919 18.0309" stroke="white" stroke-miterlimit="22.9256" stroke-linecap="round" stroke-linejoin="round"/>
</svg>
