<svg width="52" height="52" viewBox="0 0 52 52" fill="none" xmlns="http://www.w3.org/2000/svg">
<path d="M33.3436 9.44727C33.3436 13.2829 30.3441 16.4195 26.6722 16.4195C23.0047 16.4195 20.0007 19.5562 20.0007 23.3918V42.6983C20.3193 46.2464 18.1294 49.4273 14.4707 50.405" stroke="black" stroke-width="1.2" stroke-miterlimit="22.9256" stroke-linecap="square" stroke-linejoin="round"/>
<path d="M36.6212 50.4046C32.9625 49.4225 30.7726 46.246 31.0912 42.6979C31.0912 38.8136 31.0912 26.4971 31.0912 24.9531" stroke="black" stroke-width="1.2" stroke-miterlimit="22.9256" stroke-linecap="square" stroke-linejoin="round"/>
<path d="M31.4453 36.2751C40.7004 43.3049 53.8 33.3287 47.9204 23.0605C49.575 21.8394 50.4421 19.946 50.566 18.0215C50.6899 16.1192 50.0882 14.1903 48.8141 12.8587C46.1243 10.0494 40.8906 10.5316 38.8733 14.062" stroke="black" stroke-width="1.2" stroke-miterlimit="22.9256" stroke-linecap="square" stroke-linejoin="round"/>
<path d="M15.6732 11.4941C15.6732 11.4941 14.5362 14.9051 16.9296 16.7764" stroke="black" stroke-width="1.2" stroke-miterlimit="22.9256" stroke-linecap="square" stroke-linejoin="round"/>
<path d="M28.1982 16.3332C28.1982 16.3332 29.3883 16.3066 29.7113 16.311C30.773 16.311 33.0647 16.7711 33.9628 18.9168" stroke="black" stroke-width="1.2" stroke-miterlimit="22.9256" stroke-linecap="square" stroke-linejoin="round"/>
<path d="M25.5254 50.4064V35.4355C25.5254 31.883 23.1762 29.1312 19.8892 28.5561C16.7525 28.0075 13.147 28.5826 13.6778 23.3888C8.26725 27.0298 0.702148 23.2384 0.702148 16.5183C0.702148 11.2272 5.58628 7.334 10.7049 8.42231C9.40865 1.13151 18.1594 -1.51849 21.6323 3.08693" stroke="black" stroke-width="1.2" stroke-miterlimit="22.9256" stroke-linecap="square" stroke-linejoin="round"/>
<path d="M43.6867 10.9017C43.5672 10.508 43.4301 10.1143 43.2752 9.72938C41.1296 4.3763 35.8915 0.59375 29.7731 0.59375C24.3448 0.59375 19.6111 3.57112 17.1115 7.97746C16.3904 9.25158 16.1603 10.2072 15.6693 11.4901C14.3819 15.1444 10.3383 17.0777 6.68848 15.7859" stroke="black" stroke-width="1.2" stroke-miterlimit="22.9256" stroke-linecap="square" stroke-linejoin="round"/>
<path d="M41.3285 20.0879C41.3285 25.6931 36.8292 30.2455 31.2461 30.3295" stroke="black" stroke-width="1.2" stroke-miterlimit="22.9256" stroke-linecap="square" stroke-linejoin="round"/>
<path fill-rule="evenodd" clip-rule="evenodd" d="M21.5093 3.02502C22.2892 2.50677 22.1588 2.07252 21.8848 1.94956C21.6958 2.52719 21.6257 2.50631 21.7836 1.9194C21.487 1.87239 21.139 2.1652 21.5093 3.02502Z" fill="black"/>
<path fill-rule="evenodd" clip-rule="evenodd" d="M41.2469 38.2063C43.0381 38.7458 43.5401 37.9918 43.3802 37.4136C42.2505 37.8588 42.1933 37.7243 43.2976 37.2193C42.9919 36.703 42.0979 36.5407 41.2469 38.2063Z" fill="black"/>
<path fill-rule="evenodd" clip-rule="evenodd" d="M10.039 7.53235C8.97809 7.81156 8.95814 8.3424 9.21534 8.58251C9.64371 8.01368 9.71353 8.06339 9.31619 8.65431C9.62723 8.81878 10.124 8.62595 10.039 7.53235Z" fill="black"/>
</svg>
