<svg width="21" height="21" viewBox="0 0 21 21" fill="none" xmlns="http://www.w3.org/2000/svg">
<path d="M4.28705 13.7303C6.10243 13.7303 7.57409 12.2587 7.57409 10.4433C7.57409 8.62791 6.10243 7.15625 4.28705 7.15625C2.47166 7.15625 1 8.62791 1 10.4433C1 12.2587 2.47166 13.7303 4.28705 13.7303Z" stroke="white" stroke-miterlimit="22.9256" stroke-linecap="round" stroke-linejoin="round"/>
<path d="M13.311 4.28705C13.311 2.47138 14.7824 1 16.5981 1C18.4138 1 19.8851 2.47138 19.8851 4.28705C19.8851 6.10271 18.4138 7.57409 16.5981 7.57409C15.7528 7.57409 14.9828 7.25549 14.4004 6.73135" stroke="white" stroke-miterlimit="22.9256" stroke-linecap="round" stroke-linejoin="round"/>
<path d="M13.3105 4.28516L7.1167 8.76609" stroke="white" stroke-miterlimit="22.9256" stroke-linecap="round" stroke-linejoin="round"/>
<path d="M13.311 16.6718C13.311 18.4875 14.7824 19.9589 16.5981 19.9589C18.4138 19.9589 19.8851 18.4875 19.8851 16.6718C19.8851 14.8561 18.4138 13.3848 16.5981 13.3848C15.7528 13.3848 14.9828 13.7034 14.4004 14.2275" stroke="white" stroke-miterlimit="22.9256" stroke-linecap="round" stroke-linejoin="round"/>
<path d="M13.3105 16.6704L7.1167 12.1895" stroke="white" stroke-miterlimit="22.9256" stroke-linecap="round" stroke-linejoin="round"/>
</svg>
