<svg width="11" height="12" viewBox="0 0 11 12" fill="none" xmlns="http://www.w3.org/2000/svg">
<path d="M5.04399 1.02296H5.52292C6.89677 1.02296 8.14607 1.58596 9.04191 2.48366C9.93777 3.38139 10.5 4.63378 10.5 6.01148C10.5 7.38918 9.93777 8.64157 9.04191 9.5393C8.14607 10.437 6.89677 11 5.52292 11C5.12278 11 4.74901 10.9578 4.40016 10.8756C4.0509 10.7932 3.71701 10.6684 3.39722 10.5189L3.25668 10.4532L3.10363 10.4786L0.634134 10.888L1.1088 8.545L1.14295 8.37641L1.06615 8.22249C0.898696 7.88688 0.776153 7.55794 0.694391 7.18924C0.607189 6.79601 0.545833 6.39843 0.545833 5.98852C0.545833 4.61082 1.10807 3.35843 2.00392 2.4607C2.79446 1.66851 3.86026 1.13698 5.04399 1.02296Z" stroke="white"/>
</svg>
