<svg width="150" height="45" viewBox="0 0 150 45" fill="none" xmlns="http://www.w3.org/2000/svg">
<g filter="url(#filter0_i_1218_12875)">
<rect width="150" height="45" rx="22.5" fill="#0A724A"/>
</g>
<path d="M53.098 27V16.0909H57.2741C58.0625 16.0909 58.7176 16.2152 59.2397 16.4638C59.7652 16.7088 60.1576 17.0444 60.4169 17.4705C60.6796 17.8967 60.811 18.3796 60.811 18.9194C60.811 19.3633 60.7258 19.7433 60.5554 20.0593C60.3849 20.3718 60.1559 20.6257 59.8682 20.821C59.5806 21.0163 59.2592 21.1566 58.9041 21.2418V21.3484C59.2911 21.3697 59.6622 21.4886 60.0174 21.7053C60.376 21.9183 60.669 22.2202 60.8963 22.6108C61.1235 23.0014 61.2372 23.4737 61.2372 24.0277C61.2372 24.5923 61.1005 25.1001 60.827 25.5511C60.5536 25.9986 60.1416 26.3519 59.5912 26.6112C59.0408 26.8704 58.3483 27 57.5138 27H53.098ZM55.0742 25.3487H57.1995C57.9169 25.3487 58.4335 25.212 58.7496 24.9386C59.0692 24.6616 59.229 24.3065 59.229 23.8732C59.229 23.5501 59.1491 23.2589 58.9893 22.9996C58.8295 22.7369 58.6022 22.5309 58.3075 22.3817C58.0127 22.229 57.6612 22.1527 57.2528 22.1527H55.0742V25.3487ZM55.0742 20.7305H57.0291C57.37 20.7305 57.6772 20.6683 57.9506 20.544C58.224 20.4162 58.4389 20.2369 58.5951 20.006C58.7549 19.7717 58.8348 19.4947 58.8348 19.1751C58.8348 18.7525 58.6857 18.4045 58.3874 18.131C58.0926 17.8576 57.6541 17.7209 57.0717 17.7209H55.0742V20.7305ZM66.44 27.1598C65.641 27.1598 64.9486 26.984 64.3626 26.6325C63.7767 26.2809 63.3221 25.7891 62.999 25.157C62.6794 24.5249 62.5196 23.7862 62.5196 22.9411C62.5196 22.0959 62.6794 21.3555 62.999 20.7198C63.3221 20.0842 63.7767 19.5906 64.3626 19.239C64.9486 18.8874 65.641 18.7116 66.44 18.7116C67.239 18.7116 67.9315 18.8874 68.5174 19.239C69.1034 19.5906 69.5562 20.0842 69.8758 20.7198C70.1989 21.3555 70.3605 22.0959 70.3605 22.9411C70.3605 23.7862 70.1989 24.5249 69.8758 25.157C69.5562 25.7891 69.1034 26.2809 68.5174 26.6325C67.9315 26.984 67.239 27.1598 66.44 27.1598ZM66.4507 25.6151C66.8839 25.6151 67.2461 25.4961 67.5373 25.2582C67.8285 25.0167 68.0451 24.6935 68.1872 24.2887C68.3328 23.8839 68.4056 23.4329 68.4056 22.9357C68.4056 22.435 68.3328 21.9822 68.1872 21.5774C68.0451 21.169 67.8285 20.8441 67.5373 20.6026C67.2461 20.3612 66.8839 20.2404 66.4507 20.2404C66.0068 20.2404 65.6375 20.3612 65.3427 20.6026C65.0515 20.8441 64.8331 21.169 64.6875 21.5774C64.5455 21.9822 64.4745 22.435 64.4745 22.9357C64.4745 23.4329 64.5455 23.8839 64.6875 24.2887C64.8331 24.6935 65.0515 25.0167 65.3427 25.2582C65.6375 25.4961 66.0068 25.6151 66.4507 25.6151ZM73.8561 24.3899L77.1321 18.8182H79.1136V27H77.2492V21.4229L73.984 27H71.9971V18.8182H73.8561V24.3899ZM76.6047 16.0057H78.0483C78.0483 16.6271 77.8228 17.1314 77.3718 17.5185C76.9243 17.902 76.3171 18.0938 75.55 18.0938C74.7901 18.0938 74.1846 17.902 73.7336 17.5185C73.2862 17.1314 73.0642 16.6271 73.0678 16.0057H74.5007C74.5007 16.2614 74.5788 16.4904 74.735 16.6928C74.8948 16.8917 75.1665 16.9911 75.55 16.9911C75.9264 16.9911 76.1946 16.8917 76.3544 16.6928C76.5177 16.494 76.6012 16.2649 76.6047 16.0057ZM80.1776 20.4002V18.8182H87.3367V20.4002H84.6893V27H82.825V20.4002H80.1776ZM90.7311 24.3899L94.0071 18.8182H95.9886V27H94.1242V21.4229L90.859 27H88.8721V18.8182H90.7311V24.3899Z" fill="white"/>
<defs>
<filter id="filter0_i_1218_12875" x="0" y="0" width="150" height="46" filterUnits="userSpaceOnUse" color-interpolation-filters="sRGB">
<feFlood flood-opacity="0" result="BackgroundImageFix"/>
<feBlend mode="normal" in="SourceGraphic" in2="BackgroundImageFix" result="shape"/>
<feColorMatrix in="SourceAlpha" type="matrix" values="0 0 0 0 0 0 0 0 0 0 0 0 0 0 0 0 0 0 127 0" result="hardAlpha"/>
<feOffset dy="1"/>
<feGaussianBlur stdDeviation="0.5"/>
<feComposite in2="hardAlpha" operator="arithmetic" k2="-1" k3="1"/>
<feColorMatrix type="matrix" values="0 0 0 0 0.115187 0 0 0 0 0.739167 0 0 0 0 0.499174 0 0 0 1 0"/>
<feBlend mode="normal" in2="shape" result="effect1_innerShadow_1218_12875"/>
</filter>
</defs>
</svg>
